<?xml version="1.0" standalone="no"?>
<!DOCTYPE svg PUBLIC "-//W3C//DTD SVG 20010904//EN"
 "http://www.w3.org/TR/2001/REC-SVG-20010904/DTD/svg10.dtd">
<svg version="1.0" xmlns="http://www.w3.org/2000/svg"
 width="917.000000pt" height="577.000000pt" viewBox="0 0 917.000000 577.000000"
 preserveAspectRatio="xMidYMid meet">

<g transform="translate(0.000000,577.000000) scale(0.100000,-0.100000)"
fill="#e92429 " stroke="none">
<path d="M6757 5623 c-4 -75 -7 -212 -7 -305 l0 -168 -3298 0 -3297 0 -40 -21
c-44 -24 -68 -48 -93 -94 -16 -28 -17 -186 -20 -1960 -2 -1062 0 -1949 3
-1971 8 -60 57 -128 109 -153 l42 -21 3302 0 3302 0 2 -456 3 -456 245 293
c400 477 630 751 675 804 23 28 150 179 281 336 276 330 692 827 988 1179 113
135 206 250 206 257 0 28 -356 484 -958 1227 -130 160 -257 316 -282 346 -26
30 -125 149 -221 264 -260 314 -284 342 -492 581 -193 221 -416 455 -434 455
-6 0 -13 -58 -16 -137z"/>
</g>
</svg>
